<svg height="482pt" viewBox="0 -24 482.82688 482" width="482pt" xmlns="http://www.w3.org/2000/svg"><path d="m426.25 252.605469-9.902344 9.910156-7.855468-7.328125c-2.96875-2.757812-5.191407-6.222656-6.464844-10.070312l-6.402344-18.871094c-1.90625-5.9375-5.195312-11.335938-9.597656-15.753906l-71.121094-71.117188c-13.542969-13.453125-31.847656-21.023438-50.933594-21.066406h-14.769531l-111.089844-111.09375c-9.503906-9.066406-24.453125-9.066406-33.957031 0l-97.121094 97.117187c-9.378906 9.375-9.378906 24.578125 0 33.953125l174.398438 174.398438c9.367187 9.328125 24.507812 9.328125 33.875 0l12.734375-12.734375c12.238281 30.332031 41.617187 50.242187 74.328125 50.359375h1.359375c2.148437.003906 4.203125.867187 5.703125 2.402344l8.371094 8.367187-16 16 56.566406 56.542969 124.457031-124.457032zm-310.78125-234.078125c1.5-1.507813 3.535156-2.351563 5.664062-2.351563 2.125 0 4.160157.84375 5.660157 2.351563l174.402343 174.398437c3.082032 3.117188 3.082032 8.132813 0 11.246094l-13.550781 13.554687-48.417969-28c-14.992187-8.589843-34.089843-3.726562-43.152343 10.984376l-131.390625-131.402344zm125.300781 246.070312-14.398437 14.398438-185.6875-185.6875 12.6875-12.6875 137.945312 137.945312c.222656 11.082032 6.28125 21.222656 15.933594 26.671875zm-48 36.800782-174.398437-174.425782c-1.503906-1.5-2.351563-3.539062-2.351563-5.664062s.847657-4.164063 2.351563-5.664063l11.023437-11.023437 185.664063 185.6875-11.085938 11.066406c-3.113281 3.046875-8.089844 3.046875-11.203125 0zm128 40c-4.5-4.550782-10.636719-7.105469-17.039062-7.089844h-1.359375c-28.757813-.109375-53.949219-19.296875-61.695313-46.992188l14.4375-14.398437 9.65625 5.597656c7.25 23.554687 28.957031 39.671875 53.601563 39.792969v-16c-18.550782-.082032-34.636719-12.851563-38.921875-30.902344l-.796875-3.394531-11.847656-6.847657-51.601563-29.765624c-7.65625-4.40625-10.289063-14.183594-5.886719-21.839844 4.589844-7.441406 14.171875-10.027344 21.886719-5.914063l59 34.121094 24.105469 13.917969 8-13.855469-20.378906-11.773437 10.519531-10.519532c9.328125-9.367187 9.328125-24.507812 0-33.875l-47.238281-47.238281c14.390624.339844 28.105468 6.179687 38.328124 16.3125l71.128907 71.128906c2.632812 2.652344 4.605469 5.886719 5.75 9.445313l6.402343 18.898437c2.109376 6.378907 5.789063 12.128907 10.703126 16.71875l7.472656 6.953125-75.914063 75.910156zm3.679688 35.679687 101.800781-101.847656 33.953125 33.933593-101.832031 101.832032zm0 0"/><path d="m136.640625 84.375 11.3125-11.316406 32.109375 32.101562-11.3125 11.3125zm0 0"/><path d="m102.792969 50.527344 11.316406-11.3125 17.914063 17.914062-11.3125 11.3125zm0 0"/></svg>